<svg t="1778059237160" class="icon" viewBox="0 0 1024 1024" version="1.1" xmlns="http://www.w3.org/2000/svg" p-id="10015" width="200" height="200"><path fill="#fff" d="M853.333333 131.84h-90.026666V85.333333a42.666667 42.666667 0 0 0-85.333334 0v46.506667H341.333333V85.333333a42.666667 42.666667 0 0 0-85.333333 0v46.506667H170.666667a128 128 0 0 0-128 128V853.333333a128 128 0 0 0 128 128h682.666666a128 128 0 0 0 128-128V258.986667a128 128 0 0 0-128-127.146667zM896 853.333333a42.666667 42.666667 0 0 1-42.666667 42.666667H170.666667a42.666667 42.666667 0 0 1-42.666667-42.666667V258.986667a42.666667 42.666667 0 0 1 42.666667-42.666667h85.333333V256a42.666667 42.666667 0 0 0 85.333333 0v-38.4h335.36V256a42.666667 42.666667 0 0 0 85.333334 0v-38.4H853.333333a42.666667 42.666667 0 0 1 42.666667 42.666667z" p-id="10016"></path><path fill="#fff" d="M469.333333 552.106667H256a42.666667 42.666667 0 1 0 0 85.333333h213.333333a42.666667 42.666667 0 1 0 0-85.333333zM256 466.346667h512a42.666667 42.666667 0 1 0 0-85.333334H256a42.666667 42.666667 0 1 0 0 85.333334zM740.693333 591.786667l-128 130.986666-26.026666-27.306666a42.666667 42.666667 0 1 0-62.293334 58.026666l56.746667 60.16a42.666667 42.666667 0 0 0 30.72 13.653334 42.666667 42.666667 0 0 0 30.72-13.226667l157.866667-163.413333a42.666667 42.666667 0 1 0-61.44-58.88z" p-id="10017"></path></svg>